<svg width="77" height="19" viewBox="0 0 77 19" fill="none" xmlns="http://www.w3.org/2000/svg">
<path fill-rule="evenodd" clip-rule="evenodd" d="M9.19894 18.3979C14.2794 18.3979 18.3979 14.2794 18.3979 9.19892C18.3979 4.11851 14.2794 0 9.19894 0C4.11849 0 0 4.11851 0 9.19892C0 14.2794 4.11849 18.3979 9.19894 18.3979ZM12.0687 4.28525C12.2084 3.78906 11.7269 3.49565 11.2871 3.80896L5.14824 8.18225C4.67132 8.52202 4.74634 9.19892 5.26092 9.19892H6.87745V9.18641H10.028L7.4609 10.0922L6.3292 14.1126C6.18951 14.6088 6.67098 14.9022 7.11078 14.5889L13.2496 10.2156C13.7266 9.87587 13.6515 9.19892 13.137 9.19892H10.6855L12.0687 4.28525Z" fill="#586E84"/>
<path d="M30.9678 12.1224V13.699H24.0147V12.1224H30.9678ZM30.8667 5.01434L24.9108 13.699H23.4892V12.5401L29.4923 3.88918H30.8667V5.01434ZM30.1728 3.88918V5.47249H23.4959V3.88918H30.1728ZM31.6887 10.1281V9.98661C31.6887 9.45211 31.7651 8.96027 31.9178 8.5111C32.0705 8.05744 32.2928 7.66442 32.5848 7.33204C32.8768 6.99966 33.2361 6.74139 33.6628 6.55723C34.0895 6.36858 34.5791 6.27425 35.1316 6.27425C35.684 6.27425 36.1759 6.36858 36.6071 6.55723C37.0383 6.74139 37.3999 6.99966 37.6918 7.33204C37.9883 7.66442 38.2129 8.05744 38.3656 8.5111C38.5183 8.96027 38.5946 9.45211 38.5946 9.98661V10.1281C38.5946 10.6581 38.5183 11.15 38.3656 11.6036C38.2129 12.0528 37.9883 12.4458 37.6918 12.7827C37.3999 13.1151 37.0405 13.3733 36.6138 13.5575C36.1871 13.7416 35.6975 13.8337 35.145 13.8337C34.5926 13.8337 34.1007 13.7416 33.6695 13.5575C33.2428 13.3733 32.8813 13.1151 32.5848 12.7827C32.2928 12.4458 32.0705 12.0528 31.9178 11.6036C31.7651 11.15 31.6887 10.6581 31.6887 10.1281ZM33.6291 9.98661V10.1281C33.6291 10.4335 33.6561 10.7188 33.71 10.9838C33.7639 11.2488 33.8492 11.4823 33.966 11.6845C34.0873 11.8821 34.2445 12.0371 34.4376 12.1494C34.6308 12.2616 34.8666 12.3178 35.145 12.3178C35.4145 12.3178 35.6459 12.2616 35.839 12.1494C36.0322 12.0371 36.1871 11.8821 36.3039 11.6845C36.4207 11.4823 36.506 11.2488 36.5599 10.9838C36.6183 10.7188 36.6475 10.4335 36.6475 10.1281V9.98661C36.6475 9.69016 36.6183 9.41168 36.5599 9.15116C36.506 8.88616 36.4184 8.65259 36.2972 8.45047C36.1804 8.24385 36.0254 8.08215 35.8323 7.96537C35.6391 7.84858 35.4056 7.79019 35.1316 7.79019C34.8576 7.79019 34.624 7.84858 34.4309 7.96537C34.2422 8.08215 34.0873 8.24385 33.966 8.45047C33.8492 8.65259 33.7639 8.88616 33.71 9.15116C33.6561 9.41168 33.6291 9.69016 33.6291 9.98661ZM39.4773 10.1281V9.98661C39.4773 9.45211 39.5536 8.96027 39.7063 8.5111C39.8591 8.05744 40.0814 7.66442 40.3733 7.33204C40.6653 6.99966 41.0246 6.74139 41.4513 6.55723C41.8781 6.36858 42.3676 6.27425 42.9201 6.27425C43.4726 6.27425 43.9644 6.36858 44.3956 6.55723C44.8268 6.74139 45.1884 6.99966 45.4804 7.33204C45.7768 7.66442 46.0014 8.05744 46.1541 8.5111C46.3068 8.96027 46.3832 9.45211 46.3832 9.98661V10.1281C46.3832 10.6581 46.3068 11.15 46.1541 11.6036C46.0014 12.0528 45.7768 12.4458 45.4804 12.7827C45.1884 13.1151 44.8291 13.3733 44.4024 13.5575C43.9757 13.7416 43.4861 13.8337 42.9336 13.8337C42.3811 13.8337 41.8893 13.7416 41.4581 13.5575C41.0314 13.3733 40.6698 13.1151 40.3733 12.7827C40.0814 12.4458 39.8591 12.0528 39.7063 11.6036C39.5536 11.15 39.4773 10.6581 39.4773 10.1281ZM41.4177 9.98661V10.1281C41.4177 10.4335 41.4446 10.7188 41.4985 10.9838C41.5524 11.2488 41.6378 11.4823 41.7545 11.6845C41.8758 11.8821 42.033 12.0371 42.2262 12.1494C42.4193 12.2616 42.6551 12.3178 42.9336 12.3178C43.2031 12.3178 43.4344 12.2616 43.6276 12.1494C43.8207 12.0371 43.9757 11.8821 44.0924 11.6845C44.2092 11.4823 44.2946 11.2488 44.3485 10.9838C44.4069 10.7188 44.4361 10.4335 44.4361 10.1281V9.98661C44.4361 9.69016 44.4069 9.41168 44.3485 9.15116C44.2946 8.88616 44.207 8.65259 44.0857 8.45047C43.9689 8.24385 43.814 8.08215 43.6208 7.96537C43.4277 7.84858 43.1941 7.79019 42.9201 7.79019C42.6461 7.79019 42.4126 7.84858 42.2194 7.96537C42.0308 8.08215 41.8758 8.24385 41.7545 8.45047C41.6378 8.65259 41.5524 8.88616 41.4985 9.15116C41.4446 9.41168 41.4177 9.69016 41.4177 9.98661ZM49.5161 7.9182V13.699H47.569V6.409H49.3949L49.5161 7.9182ZM49.2466 9.79796H48.7076C48.7076 9.29041 48.7683 8.82327 48.8895 8.39657C49.0153 7.96537 49.1972 7.59256 49.4353 7.27814C49.6778 6.95923 49.9765 6.71219 50.3314 6.53702C50.6862 6.36184 51.0972 6.27425 51.5643 6.27425C51.8877 6.27425 52.1842 6.32366 52.4537 6.42248C52.7232 6.5168 52.9545 6.66727 53.1476 6.87389C53.3453 7.07602 53.498 7.34102 53.6058 7.66892C53.7136 7.99232 53.7675 8.38084 53.7675 8.8345V13.699H51.8271V9.0501C51.8271 8.71772 51.7822 8.46169 51.6923 8.28203C51.6025 8.10236 51.4745 7.97659 51.3083 7.90473C51.1466 7.83286 50.9512 7.79693 50.7221 7.79693C50.4706 7.79693 50.2505 7.84858 50.0619 7.95189C49.8777 8.0552 49.725 8.19893 49.6037 8.38309C49.4824 8.56276 49.3926 8.77387 49.3342 9.01642C49.2758 9.25896 49.2466 9.51948 49.2466 9.79796ZM53.5856 9.57563L52.8916 9.66321C52.8916 9.1871 52.95 8.74467 53.0668 8.33593C53.1881 7.92719 53.3655 7.56785 53.599 7.25793C53.8371 6.948 54.1313 6.7077 54.4817 6.53702C54.832 6.36184 55.2363 6.27425 55.6944 6.27425C56.0448 6.27425 56.3637 6.32591 56.6511 6.42922C56.9386 6.52803 57.1834 6.68749 57.3855 6.90758C57.5921 7.12318 57.7493 7.40615 57.8571 7.7565C57.9694 8.10685 58.0256 8.53581 58.0256 9.04337V13.699H56.0784V9.04337C56.0784 8.70649 56.0335 8.45047 55.9437 8.27529C55.8584 8.09562 55.7326 7.9721 55.5664 7.90473C55.4047 7.83286 55.2116 7.79693 54.987 7.79693C54.7534 7.79693 54.549 7.84409 54.3739 7.93842C54.1987 8.02825 54.0527 8.15402 53.9359 8.31572C53.8191 8.47742 53.7316 8.66607 53.6732 8.88167C53.6148 9.09277 53.5856 9.32409 53.5856 9.57563ZM62.8833 13.8337C62.3174 13.8337 61.8098 13.7439 61.3606 13.5642C60.9115 13.3801 60.5297 13.1263 60.2153 12.8029C59.9053 12.4795 59.6673 12.1044 59.5011 11.6777C59.3349 11.2465 59.2518 10.7884 59.2518 10.3033V10.0338C59.2518 9.4813 59.3304 8.97599 59.4876 8.51784C59.6448 8.05969 59.8694 7.66218 60.1614 7.3253C60.4578 6.98843 60.8172 6.73016 61.2394 6.55049C61.6616 6.36633 62.1377 6.27425 62.6677 6.27425C63.1843 6.27425 63.6424 6.3596 64.0422 6.53028C64.4419 6.70096 64.7766 6.94351 65.0461 7.25793C65.32 7.57235 65.5267 7.94964 65.6659 8.38983C65.8051 8.82552 65.8748 9.31062 65.8748 9.84513V10.6536H60.0805V9.36003H63.9681V9.2118C63.9681 8.9423 63.9186 8.702 63.8198 8.49089C63.7255 8.27529 63.5818 8.10461 63.3886 7.97884C63.1955 7.85307 62.9484 7.79019 62.6475 7.79019C62.3915 7.79019 62.1714 7.84634 61.9872 7.95863C61.8031 8.07092 61.6526 8.22813 61.5358 8.43025C61.4235 8.63238 61.3382 8.87044 61.2798 9.14443C61.2259 9.41393 61.1989 9.71038 61.1989 10.0338V10.3033C61.1989 10.5952 61.2394 10.8647 61.3202 11.1118C61.4056 11.3588 61.5246 11.5722 61.6773 11.7518C61.8345 11.9315 62.0232 12.0707 62.2433 12.1696C62.4678 12.2684 62.7216 12.3178 63.0046 12.3178C63.3549 12.3178 63.6806 12.2504 63.9815 12.1157C64.287 11.9764 64.5497 11.7676 64.7698 11.4891L65.7131 12.5132C65.5603 12.7333 65.3515 12.9444 65.0865 13.1465C64.826 13.3486 64.5115 13.5148 64.1432 13.6451C63.7749 13.7708 63.3549 13.8337 62.8833 13.8337ZM68.9201 7.99905V13.699H66.9797V6.409H68.8056L68.9201 7.99905ZM71.1165 6.36184L71.0829 8.16075C70.9885 8.14728 70.874 8.13605 70.7392 8.12707C70.609 8.11359 70.49 8.10685 70.3822 8.10685C70.1082 8.10685 69.8701 8.14279 69.668 8.21465C69.4703 8.28203 69.3042 8.38309 69.1694 8.51784C69.0391 8.65259 68.9403 8.81654 68.873 9.00968C68.8101 9.20282 68.7741 9.42291 68.7652 9.66995L68.3744 9.54868C68.3744 9.07705 68.4215 8.64361 68.5159 8.24834C68.6102 7.84858 68.7472 7.50048 68.9269 7.20403C69.111 6.90758 69.3356 6.6785 69.6006 6.5168C69.8656 6.3551 70.1688 6.27425 70.5102 6.27425C70.618 6.27425 70.728 6.28324 70.8403 6.3012C70.9526 6.31468 71.0447 6.33489 71.1165 6.36184ZM73.9732 7.99905V13.699H72.0328V6.409H73.8587L73.9732 7.99905ZM76.1697 6.36184L76.136 8.16075C76.0416 8.14728 75.9271 8.13605 75.7924 8.12707C75.6621 8.11359 75.5431 8.10685 75.4353 8.10685C75.1613 8.10685 74.9232 8.14279 74.7211 8.21465C74.5235 8.28203 74.3573 8.38309 74.2225 8.51784C74.0923 8.65259 73.9935 8.81654 73.9261 9.00968C73.8632 9.20282 73.8273 9.42291 73.8183 9.66995L73.4275 9.54868C73.4275 9.07705 73.4747 8.64361 73.569 8.24834C73.6633 7.84858 73.8003 7.50048 73.98 7.20403C74.1641 6.90758 74.3887 6.6785 74.6537 6.5168C74.9187 6.3551 75.2219 6.27425 75.5633 6.27425C75.6711 6.27425 75.7811 6.28324 75.8934 6.3012C76.0057 6.31468 76.0978 6.33489 76.1697 6.36184Z" fill="#586E84"/>
</svg>
